{"title":"30 Rock Season 3 DVDRip Eng Subs","uid":6527878,"size":5822909989,"categoryP":"video","categoryS":"tv_shows","magnet":"?xt=urn:btih:3c801c47a8bfb8c0d6bb8d832d9208097a30a57c&amp;dn=30+Rock+Season+3+DVDRip+Eng+Subs&amp;tr=udp%3A%2F%2Ftracker.openbittorrent.com%3A80&amp;tr=udp%3A%2F%2Fopen.demonii.com%3A1337&amp;tr=udp%3A%2F%2Ftracker.coppersurfer.tk%3A6969&amp;tr=udp%3A%2F%2Fexodus.desync.com%3A6969","seeders":2,"leechers":0,"uploader":"CrowTR","files":22,"time":1310212175,"description":"General\nFormat                           : MPEG-4\nFormat profile                   : Base Media / Version 2\nCodec ID                         : mp42\nFile size                        : 253 MiB\nDuration                         : 21mn 32s\nOverall bit rate                 : 1 641 Kbps\nEncoded date                     : UTC 2011-07-06 21:06:28\nTagged date                      : UTC 2011-07-06 21:22:35\n\nVideo\nID                               : 1\nFormat                           : MPEG-4 Visual\nFormat profile                   : AdvancedSimple@L5\nFormat settings, BVOP            : Yes\nFormat settings, QPel            : No\nFormat settings, GMC             : No warppoints\nFormat settings, Matrix          : Default (H.263)\nCodec ID                         : 20\nDuration                         : 21mn 32s\nBit rate mode                    : Variable\nBit rate                         : 1 546 Kbps\nMaximum bit rate                 : 4 507 Kbps\nWidth                            : 720 pixels\nHeight                           : 416 pixels\nDisplay aspect ratio             : 16:9\nFrame rate mode                  : Constant\nFrame rate                       : 29.970 fps\nResolution                       : 24 bits\nColorimetry                      : 4:2:0\nScan type                        : Progressive\nBits/(Pixel*Frame)               : 0.172\nStream size                      : 238 MiB (94%)\nWriting library                  : em4v 4.1.6.5\nLanguage                         : English\nEncoded date                     : UTC 2011-07-06 21:06:28\nTagged date                      : UTC 2011-07-06 21:22:35\n\nAudio\nID                               : 2\nFormat                           : AAC\nFormat/Info                      : Advanced Audio Codec\nFormat version                   : Version 4\nFormat profile                   : LC\nFormat settings, SBR             : No\nCodec ID                         : 40\nDuration                         : 21mn 32s\nBit rate mode                    : Variable\nBit rate                         : 80.7 Kbps\nMaximum bit rate                 : 142 Kbps\nChannel(s)                       : 2 channels\nChannel positions                : L R\nSampling rate                    : 44.1 KHz\nResolution                       : 16 bits\nStream size                      : 12.4 MiB (5%)\nLanguage                         : English\nEncoded date                     : UTC 2011-07-06 21:06:28\nTagged date                      : UTC 2011-07-06 21:22:35\n\nText\nID                               : 3\nFormat                           : VobSub\nCodec ID                         : subp\nCodec ID/Info                    : The same subtitle format used on DVDs\nDuration                         : 20mn 51s\nBit rate mode                    : Variable\nBit rate                         : 8 056 bps\nStream size                      : 1.20 MiB (0%)\nTitle                            : English\nLanguage                         : English","torrent":{"xt":"urn:btih:3c801c47a8bfb8c0d6bb8d832d9208097a30a57c","amp;dn":"30+Rock+Season+3+DVDRip+Eng+Subs","amp;tr":["udp%3A%2F%2Ftracker.openbittorrent.com%3A80","udp%3A%2F%2Fopen.demonii.com%3A1337","udp%3A%2F%2Ftracker.coppersurfer.tk%3A6969","udp%3A%2F%2Fexodus.desync.com%3A6969"],"infoHash":"3c801c47a8bfb8c0d6bb8d832d9208097a30a57c","infoHashBuffer":{"type":"Buffer","data":[60,128,28,71,168,191,184,192,214,187,141,131,45,146,8,9,122,48,165,124]},"announce":[],"urlList":[]}}